<svg width="400" height="400" xmlns="http://www.w3.org/2000/svg" xmlns:xlink="http://www.w3.org/1999/xlink">
  <defs>
    <polygon id="ghost_base"
             points=" 50,  0  90,  0  90, 10 110, 10 110, 20
                     120, 20 120, 30 130, 30 130, 60 140, 60
                     140,140 130,140 130,130 120,130 120,120
                     110,120 110,130 100,130 100,140  80,140
                      80,120  60,120  60,140  40,140  40,130
                      30,130  30,120  20,120  20,130  10,130
                      10,140   0,140   0, 60  10, 60  10, 30
                      20, 30  20, 20  30, 20  30, 10  50, 10"
             stroke="#ccc" stroke-width="5" fill="none"/>

    <polygon id="eye"
             points="10, 0 30, 0 30,10 40,10 40,40
                     30,40 30,50 10,50 10,40  0,40
                      0,10 10,10"
             stroke="#ccc" stroke-width="5" fill="none"/>
    <rect id="eye_ball" x="0" y="0" width="20" height="20" stroke="#ccc" stroke-width="5" fill="none"/>

    <g id="eyes_right">
      <use x="30" y="30" xlink:href="#eye" fill="none"/>
      <use x="50" y="50" xlink:href="#eye_ball" fill="none"/>
      <use x="90" y="30" xlink:href="#eye" fill="none"/>
      <use x="110" y="50" xlink:href="#eye_ball" fill="none"/>
    </g>

    <g id="eyes_left">
      <use x="10" y="30" xlink:href="#eye" fill="none"/>
      <use x="10" y="50" xlink:href="#eye_ball" fill="none"/>
      <use x="70" y="30" xlink:href="#eye" fill="none"/>
      <use x="70" y="50" xlink:href="#eye_ball" fill="none"/>
    </g>

    <g id="eyes_down">
      <use x="20" y="40" xlink:href="#eye" fill="none"/>
      <use x="30" y="70" xlink:href="#eye_ball" fill="none"/>
      <use x="80" y="40" xlink:href="#eye" fill="none"/>
      <use x="90" y="70" xlink:href="#eye_ball" fill="none"/>
    </g>

    <g id="eyes_up">
      <use x="20" y="10" xlink:href="#eye" fill="none"/>
      <use x="30" y="10" xlink:href="#eye_ball" fill="none"/>
      <use x="80" y="10" xlink:href="#eye" fill="none"/>
      <use x="90" y="10" xlink:href="#eye_ball" fill="none"/>
    </g>
  </defs>

  <rect x="1" y="1"
    width="399" height="399"
    rx="20" ry="20"
    stroke="#00f" stroke-width="5"/>

  <use x="40" y="30" xlink:href="#ghost_base"/>
  <use x="40" y="30" xlink:href="#eyes_right"/>
  <use x="220" y="30" xlink:href="#ghost_base"/>
  <use x="220" y="30" xlink:href="#eyes_down"/>
  <use x="40" y="220" xlink:href="#ghost_base"/>
  <use x="40" y="220" xlink:href="#eyes_up"/>
  <use x="220" y="220" xlink:href="#ghost_base"/>
  <use x="220" y="220" xlink:href="#eyes_left"/>
</svg>
