<svg width="800" height="800" xmlns="http://www.w3.org/2000/svg">
  <rect x="0" y="0"
    width="800" height="800"
    fill="#000" />

  <circle cx="100" cy="100" r="20" fill="#fff"/>

  <circle cx="200" cy="100" r="10" fill="#fff"/>
  <circle cx="300" cy="100" r="10" fill="#fff"/>
  <circle cx="400" cy="100" r="10" fill="#fff"/>
  <circle cx="500" cy="100" r="10" fill="#fff"/>
  <circle cx="600" cy="100" r="10" fill="#fff"/>

  <circle cx="700" cy="100" r="20" fill="#fff"/>

  <circle cx="700" cy="200" r="10" fill="#fff"/>
  <circle cx="700" cy="300" r="10" fill="#fff"/>
  <circle cx="700" cy="400" r="10" fill="#fff"/>
  <circle cx="700" cy="500" r="10" fill="#fff"/>
  <circle cx="700" cy="600" r="10" fill="#fff"/>

  <circle cx="700" cy="700" r="20" fill="#fff"/>

  <circle cx="600" cy="700" r="10" fill="#fff"/>
  <circle cx="500" cy="700" r="10" fill="#fff"/>
  <circle cx="400" cy="700" r="10" fill="#fff"/>
  <circle cx="300" cy="700" r="10" fill="#fff"/>
  <circle cx="200" cy="700" r="10" fill="#fff"/>

  <circle cx="100" cy="700" r="20" fill="#fff"/>

  <circle cx="100" cy="600" r="10" fill="#fff"/>
  <circle cx="100" cy="500" r="10" fill="#fff"/>
  <circle cx="100" cy="400" r="10" fill="#fff"/>
  <circle cx="100" cy="300" r="10" fill="#fff"/>
  <circle cx="100" cy="200" r="10" fill="#fff"/>

</svg>
