<svg width="200" height="200" xmlns="http://www.w3.org/2000/svg" xmlns:xlink="http://www.w3.org/1999/xlink">
  <defs>
    <g id="mazeman">
      <polygon
             points="  0, 40  10, 40  10, 20  20, 20  20, 10
                      40, 10  40,  0  90,  0  90, 10 110, 10
                     110, 20 120, 20 120, 40 100, 40 100, 50
                      70, 50  70, 60  50, 60  50, 70  70, 70
                      70, 80 100, 80 100, 90 120, 90 120,110
                     110,110 110,120  90,120  90,130  40,130
                      40,120  20,120  20,110  10,110  10, 90
                       0, 90"
             stroke="#ccc" stroke-width="5" />
      <rect x="70" y="20" width="10" height="10" stroke="#ccc" stroke-width="5"/>
    </g>
  </defs>

  <rect x="0" y="0"
    width="200" height="200"
    rx="20" ry="20"
    stroke="#00f" stroke-width="5"/>

  <use x="40" y="35" xlink:href="#mazeman" />

</svg>
