<svg width="300" height="50" xmlns="http://www.w3.org/2000/svg" xmlns:xlink="http://www.w3.org/1999/xlink">

  <defs>
    <linearGradient id="exit-step-grad1" x1="0%" y1="0%" x2="0%" y2="100%">
      <stop offset="0%" style="stop-color:#ccc;stop-opacity:1" />
      <stop offset="100%" style="stop-color:#aaa;stop-opacity:1" />
    </linearGradient>
    <linearGradient id="exit-step-grad2" x1="0%" y1="0%" x2="0%" y2="100%">
      <stop offset="0%" style="stop-color:#aaa;stop-opacity:1" />
      <stop offset="100%" style="stop-color:#888;stop-opacity:1" />
    </linearGradient>
    <linearGradient id="exit-step-grad3" x1="0%" y1="0%" x2="0%" y2="100%">
      <stop offset="0%" style="stop-color:#888;stop-opacity:1" />
      <stop offset="100%" style="stop-color:#666;stop-opacity:1" />
    </linearGradient>
    <linearGradient id="exit-step-grad4" x1="0%" y1="0%" x2="0%" y2="100%">
      <stop offset="0%" style="stop-color:#666;stop-opacity:1" />
      <stop offset="100%" style="stop-color:#444;stop-opacity:1" />
    </linearGradient>
    <linearGradient id="exit-step-grad5" x1="0%" y1="0%" x2="0%" y2="100%">
      <stop offset="0%" style="stop-color:#444;stop-opacity:1" />
      <stop offset="100%" style="stop-color:#222;stop-opacity:1" />
    </linearGradient>
  </defs>

  <rect x="50" y="0" width="40" height="10" fill="url(#exit-step-grad1)"/>
  <rect x="130" y="0" width="40" height="10" fill="url(#exit-step-grad1)"/>
  <rect x="210" y="0" width="40" height="10" fill="url(#exit-step-grad1)"/>

  <rect x="90" y="10" width="40" height="10" fill="url(#exit-step-grad2)"/>
  <rect x="170" y="10" width="40" height="10" fill="url(#exit-step-grad2)"/>

  <rect x="50" y="20" width="20" height="10" fill="url(#exit-step-grad3)"/>
  <rect x="90" y="20" width="20" height="10" fill="url(#exit-step-grad3)"/>
  <rect x="130" y="20" width="20" height="10" fill="url(#exit-step-grad3)"/>
  <rect x="170" y="20" width="20" height="10" fill="url(#exit-step-grad3)"/>
  <rect x="210" y="20" width="20" height="10" fill="url(#exit-step-grad3)"/>

  <rect x="70" y="30" width="20" height="10" fill="url(#exit-step-grad4)"/>
  <rect x="110" y="30" width="20" height="10" fill="url(#exit-step-grad4)"/>
  <rect x="150" y="30" width="20" height="10" fill="url(#exit-step-grad4)"/>
  <rect x="190" y="30" width="20" height="10" fill="url(#exit-step-grad4)"/>
  <rect x="230" y="30" width="20" height="10" fill="url(#exit-step-grad4)"/>

  <rect x="50" y="40" width="10" height="10" fill="url(#exit-step-grad5)"/>
  <rect x="70" y="40" width="10" height="10" fill="url(#exit-step-grad5)"/>
  <rect x="90" y="40" width="10" height="10" fill="url(#exit-step-grad5)"/>
  <rect x="110" y="40" width="10" height="10" fill="url(#exit-step-grad5)"/>
  <rect x="130" y="40" width="10" height="10" fill="url(#exit-step-grad5)"/>
  <rect x="150" y="40" width="10" height="10" fill="url(#exit-step-grad5)"/>
  <rect x="170" y="40" width="10" height="10" fill="url(#exit-step-grad5)"/>
  <rect x="190" y="40" width="10" height="10" fill="url(#exit-step-grad5)"/>
  <rect x="210" y="40" width="10" height="10" fill="url(#exit-step-grad5)"/>
  <rect x="230" y="40" width="10" height="10" fill="url(#exit-step-grad5)"/>

</svg>
