<svg width="60" height="60" xmlns="http://www.w3.org/2000/svg" xmlns:xlink="http://www.w3.org/1999/xlink">
    <g id="main">
        <defs>
            <g id="mazeman_coin">
              <polygon points="50, 1 60, 1 60,10 50,10 50,20
                               45,20 45,10 40,10 40, 5 50, 5" stroke="#000" stroke-width="1" fill="#FF0" />
              <rect x="30" y="10" width="10" height="5" stroke="#000" stroke-width="1" fill="#FF0" />
              <rect x="40" y="20" width="5" height="5" stroke="#000" stroke-width="1" fill="#FF0" />
              <rect x="25" y="15" width="5" height="5" stroke="#000" stroke-width="1" fill="#FF0" />
              <rect x="20" y="20" width="5" height="5" stroke="#000" stroke-width="1" fill="#FF0" />
              <rect x="15" y="25" width="5" height="5" stroke="#000" stroke-width="1" fill="#FF0" />
              <rect x="35" y="25" width="5" height="15" stroke="#000" stroke-width="1" fill="#FF0" />

              <polygon points=" 1,25  5,25  5,20 20,20 20,25
                               15,25 15,30 20,30 20,25 30,25
                               30,30 25,30 25,35 20,35 20,50
                                5,50  5,45  1,45" stroke="#000" stroke-width="1" fill="#F00" />
              <polygon points="25,35 30,35 30,30 35,30 35,40
                               40,40 40,30 50,30 50,35 55,35
                               55,55 50,55 50,60 30,60 30,55
                               25,55" stroke="#000" stroke-width="1" fill="#F00" />

              <rect x="5" y="35" width="5" height="5" stroke="#000" stroke-width="1" fill="#FFF" />
              <rect x="10" y="40" width="5" height="5" stroke="#000" stroke-width="1" fill="#FFF" />
              <rect x="30" y="45" width="5" height="5" stroke="#000" stroke-width="1" fill="#FFF" />
              <rect x="35" y="50" width="5" height="5" stroke="#000" stroke-width="1" fill="#FFF" />
            </g>
        </defs>

        <use x="0" y="0" xlink:href="#mazeman_coin" />
    </g>
</svg>
